<svg width="1014" height="770" viewBox="0 0 1014 770" fill="none" xmlns="http://www.w3.org/2000/svg">
<g clip-path="url(#clip0_2497_466)">
<path opacity="0.1" d="M935.22 718.22L831.5 538.57C831.211 538.065 830.794 537.645 830.291 537.353C829.788 537.061 829.217 536.908 828.635 536.908C828.053 536.908 827.482 537.061 826.979 537.353C826.476 537.645 826.059 538.065 825.77 538.57L722.05 718.22C721.748 718.723 721.585 719.298 721.579 719.884C721.572 720.471 721.722 721.049 722.014 721.559C722.305 722.068 722.727 722.491 723.236 722.783C723.745 723.075 724.323 723.226 724.91 723.22H755.85C756.727 723.223 757.567 723.572 758.188 724.192C758.808 724.813 759.157 725.653 759.16 726.53V764.88C759.16 765.756 759.507 766.597 760.126 767.217C760.745 767.837 761.584 768.187 762.46 768.19H802.79C803.668 768.19 804.51 767.841 805.131 767.221C805.751 766.6 806.1 765.758 806.1 764.88V746.34C806. 1 745.465 806.448 744.625 807.067 744.007C807.685 743.388 808.525 743.04 809.4 743.04H847.79C848.666 743.04 849.507 743.387 850.127 744.006C850.747 744.625 851.097 745.464 851.1 746.34V764.88C851.1 765.758 851.449 766.6 852.069 767.221C852.69 767.841 853.532 768.19 854.41 768.19H894.79C895.668 768.19 896.51 767.841 897.131 767.221C897.751 766.6 898.1 765.758 898.1 764.88V726.49C898.1 725.612 898.449 724.77 899.069 724.149C899.69 723.529 900.532 723.18 901.41 723.18H932.35C932.931 723.18 933.501 723.027 934.004 722.737C934.507 722.447 934.925 722.03 935.216 721.528C935.506 721.025 935.66 720.455 935.661 719.874C935.661 719.294 935.509 718.723 935.22 718.22ZM790.61 738.1C790.306 738.413 789.942 738.663 789.54 738.835C789.139 739.006 788.707 739.096 788.27 739.1H773.71C772.832 739.1 771.99 738.751 771.369 738.131C770.749 737.51 770.4 736.668 770.4 735.79C770.4 734.912 770.749 734.07 771.369 733.449C771.99 732.829 772.832 732.48 773.71 732.48H788.27C788.924 732.48 789.564 732.674 790.108 733.038C790.652 733.402 791.077 733.919 791.327 734.523C791.577 735.128 791.643 735.794 791.515 736.435C791.388 737.077 791.073 737.667 790.61 738.13V738.1ZM885.89 738.1C885.586 738.413 885.222 738.663 884.82 738.835C884.419 739.006 883.987 739.096 883.55 739.1H869C868.122 739.1 867.28 738.751 866.66 738.131C866.039 737.51 865.69 736.668 865.69 735.79C865.69 734.912 866.039 734.07 866.66 733.449C867.28 732.829 868.122 732.48 869 732.48H883.55C884.205 732.48 884.844 732.674 885.388 733.038C885.933 733.402 886.357 733.919 886.607 734.523C886.858 735.128 886.923 735.794 886.795 736.435C886.668 737.077 886.353 737.667 885.89 738.13V738.1Z" fill="#6C63FF"/>
<path opacity="0.1" d="M294.13 719.8L190.41 540.15C190.119 539.648 189.702 539.23 189.199 538.94C188.696 538.65 188.126 538.498 187.545 538.498C186.965 538.498 186.394 538.65 185.891 538.94C185.388 539.23 184.971 539.648 184.68 540.15L95.09 695.32C106.295 709.427 118.866 722.393 132.62 734.03H147.18C148.058 734.03 148.9 734.379 149.521 735C150.141 735.62 150.49 736.462 150.49 737.34C150.49 738.218 150.141 739.06 149.521 739.681C148.9 740.301 148.058 740.65 147.18 740.65H141.02C148.565 746.324 156.596 751.32 165.02 755.58V747.93C165.02 747.052 165.369 746.21 165.989 745.589C166.61 744.969 167.452 744.62 168.33 744.62H206.79C207.666 744.623 208.505 744.973 209.124 745.593C209.743 746.213 210.09 747.054 210.09 747.93V766.45C210.088 766.931 210.194 767.406 210.4 767.84C210.665 768.413 211.088 768.898 211.62 769.238C212.151 769.578 212.769 769.759 213.4 769.76H253.77C254.282 769.762 254.788 769.643 255.245 769.411C255.702 769.18 256.098 768.844 256.4 768.43C256.844 767.859 257.081 767.153 257.07 766.43V728.08C257.07 727.202 257.419 726.36 258.039 725.74C258.66 725.119 259.502 724.77 260.38 724.77H291.32C291.897 724.761 292.461 724.601 292.958 724.306C293.454 724.011 293.864 723.592 294.148 723.09C294.432 722.587 294.58 722.019 294.577 721.442C294.573 720.865 294.419 720.299 294.13 719.8ZM225.57 735C225.874 734.687 226.238 734.437 226.64 734.265C227.041 734.094 227.473 734.004 227.91 734H242.47C243.348 734 244.19 734.349 244.811 734.969C245.431 735.59 245.78 736.432 245.78 737.31C245.78 738.188 245.431 739.03 244.811 739.651C244.19 740.271 243.348 740.62 242.47 740.62H227.91C227.255 740.62 226.616 740.426 226.072 740.062C225.527 739.698 225.103 739.181 224.853 738.577C224.603 737.972 224.537 737.306 224.665 736.665C224.792 736.023 225.107 735.433 225.57 734.97V735ZM160.42 668.52C159.542 668.52 158.7 668.171 158.079 667.551C157.459 666.93 157.11 666.088 157.11 665.21V640.07C157.11 639.192 157.459 638.35 158.079 637.729C158.7 637.109 159.542 636.76 160.42 636.76H214.68C215.556 636.763 216.395 637.113 217.014 637.733C217.633 638.353 217.98 639.194 217.98 640.07V665.21C217.98 666.086 217.633 666.927 217.014 667.547C216.395 668.167 215.556 668.517 214.68 668.52H160.42Z" fill="#6C63FF"/>
<g opacity="0.1">
<path d="M89.93 644.6C89.9713 648.94 88.8564 653.213 86.7 656.98C88.8179 660.762 89.93 665.025 89.93 669.36C89.93 673.695 88.8179 677.958 86.7 681.74C87.7953 683.613 88.617 685.634 89.14 687.74C78.2241 673.352 68.1762 658.325 59.05 642.74C59.2698 639.022 60.3516 635.407 62.21 632.18C60.0673 628.437 58.9529 624.193 58.98 619.88C58.9671 616.947 59.4611 614.035 60.44 611.27C60.906 609.959 61.4988 608.696 62.21 607.5C65.03 602.71 69.47 599.62 74.45 599.62C79.43 599.62 83.88 602.71 86.7 607.5C87.386 608.662 87.965 609.883 88.43 611.15C89.4329 613.951 89.9405 616.905 89.93 619.88C89.9713 624.22 88.8564 628.493 86.7 632.26C88.8496 636.015 89.9642 640.273 89.93 644.6Z" fill="#3F3D56"/>
<path d="M74.45 615.34C82.9938 615.34 89.92 606.269 89.92 595.08C89.92 583.891 82.9938 574.82 74.45 574.82C65.9061 574.82 58.98 583.891 58.98 595.08C58.98 606.269 65.9061 615.34 74.45 615.34Z" fill="#3F3D56"/>
<path d="M74.45 590.58C82.9938 590.58 89.92 581.509 89.92 570.32C89.92 559.131 82.9938 550.06 74.45 550.06C65.9061 550.06 58.98 559.131 58.98 570.32C58.98 581.509 65.9061 590.58 74.45 590.58Z" fill="#3F3D56"/>
<path d="M148.25 446.71C148.276 463.339 142.683 479.488 132.38 492.54C140.227 502.517 145.38 514.342 147.346 526.882C149.313 539.422 148.027 552.256 143.611 564.156C139.195 576.057 131.797 586.624 122.126 594.845C112.455 603.066 100.836 608.667 88.38 611.11C86.6 611.47 84.79 611.75 82.96 611.97C77.3151 612.645 71.6117 612.675 65.96 612.06C64.08 611.86 62.2233 611.583 60.39 611.23C52.306 609.736 44.5308 606.893 37.39 602.82C24.0448 575.619 12.3861 547.623 2.48 518.99C5.07795 509.366 9.59891 500.368 15.77 492.54C8.14982 482.844 3.06663 471.402 0.980155 459.248C-1.10632 447.094 -0.130289 434.612 3.82 422.93L60.1 441.82L7.32 414.4C9.67287 409.6 12.5361 405.067 15.86 400.88C9.56543 392.88 4.98582 383.67 2.40655 373.823C-0.172729 363.976 -0.696394 353.704 0.868186 343.645C2.43277 333.587 6.05206 323.959 11.5005 315.361C16.949 306.763 24.1099 299.379 32.537 293.669C40.964 287.96 50.4767 284.047 60.4822 282.174C70.4876 280.302 80.7715 280.51 90.6929 282.787C100.614 285.063 109.961 289.358 118.15 295.404C126.338 301.45 133.194 309.118 138.29 317.93L83.88 357.93L142.88 327.33C146.652 336.701 148.472 346.743 148.228 356.841C147.984 366.94 145.681 376.883 141.46 386.06L97.46 385.73L138.12 392.41C136.394 395.366 134.466 398.199 132.35 400.89C142.661 413.936 148.263 430.082 148.25 446.71Z" fill="#6C63FF"/>
<path opacity="0.1" d="M148.25 538.37C148.247 555.547 142.281 572.19 131.371 585.456C120.461 598.723 105.283 607.79 88.43 611.11C86.65 611.47 84.84 611.75 83.01 611.97C77.3651 612.645 71.6617 612.675 66.01 612.06C64.13 611.86 62.2733 611.583 60.44 611.23C52.356 609.736 44.5808 606.893 37.44 602.82C24.0948 575.619 12.4361 547.623 2.53 518.99C5.12795 509.366 9.6489 500.368 15.82 492.54C5.52362 479.485 -0.0646797 463.337 -0.0400035 446.71C-0.0400035 438.39 142.28 479.93 132.34 492.54C142.658 505.586 148.264 521.737 148.25 538.37Z" fill="black"/>
</g>
<g opacity="0.1">
<path d="M982.48 625.32C979.58 634.58 976.48 643.77 973.3 652.75C972.417 650.103 971.971 647.33 971.98 644.54C971.98 635.61 976.38 628.02 982.48 625.32Z" fill="#3F3D56"/>
<path d="M1013.58 465.75C1013.58 483.31 1010.04 511.03 1003.58 542.75C997.921 570.611 990.862 598.169 982.43 625.32C979.53 634.58 976.43 643.77 973.25 652.75C969.6 662.94 965.75 672.86 961.72 682.35C950.702 678.307 940.798 671.714 932.815 663.111C924.832 654.508 918.997 644.139 915.788 632.85C912.579 621.561 912.085 609.673 914.349 598.158C916.612 586.642 921.567 575.825 928.81 566.59C921.18 556.868 916.088 545.401 913.993 533.221C911.898 521.042 912.866 508.532 916.81 496.82L973.09 515.75L920.31 488.27C922.634 483.464 925.467 478.922 928.76 474.72C921.73 465.757 916.852 455.3 914.502 444.154C912.152 433.008 912.394 421.472 915.207 410.434C918.021 399.396 923.332 389.152 930.73 380.491C938.129 371.83 947.417 364.984 957.88 360.48C980.597 375.978 997.696 398.402 1006.63 424.41L996.78 431.66L1007.24 426.23C1010.75 437.015 1012.8 448.221 1013.33 459.55H1010.39L1013.39 460.04C1013.54 461.88 1013.58 463.88 1013.58 465.75Z" fill="#6C63FF"/>
<path opacity="0.1" d="M1003.63 542.75C997.971 570.611 990.912 598.169 982.48 625.32C979.58 634.58 976.48 643.77 973.3 652.75C969.65 662.94 965.8 672.86 961.77 682.35C950.752 678.307 940.848 671.714 932.865 663.111C924.882 654.508 919.047 644.139 915.838 632.85C912.629 621.561 912.135 609.673 914.399 598.158C916.662 586.642 921.617 575.825 928.86 566.59C918.56 553.494 912.973 537.311 913 520.65C913 515.62 964.72 528.76 1003.63 542.75Z" fill="black"/>
</g>
<path opacity="0.1" d="M323.53 123.19C317.892 122.125 312.065 122.762 306.79 125.02C303.621 126.434 300.19 127.165 296.72 127.165C293.25 127.165 289.819 126.434 286.65 125.02C282.905 123.379 278.848 122.57 274.759 122.65C270.671 122.729 266.649 123.695 262.97 125.48C260.869 126.596 258.528 127.182 256.15 127.19C246.55 127.19 238.56 117.52 236.9 104.76C238.816 103.356 240.446 101.598 241.7 99.58C247.33 90.51 256.05 84.69 265.84 84.69C275.63 84.69 284.24 90.44 289.84 99.42C291.527 102.12 293.88 104.339 296.674 105.865C299.468 107.39 302.607 108.17 305.79 108.13H306.04C313.69 108.13 320.31 114.26 323.53 123.19Z" fill="#6C63FF"/>
<path opacity="0.1" d="M352.79 83.14L337.27 92.99L346.68 75.88C344.008 73.753 340.705 72.5746 337.29 72.53H337.04C335.962 72.5491 334.884 72.4721 333.82 72.3L328.56 75.63L330.82 71.53C327.09 70.2281 323.869 67.7774 321.62 64.53L312.2 70.53L318.15 59.72C312.64 53.11 305.22 49.05 297.06 49.05C287.27 49.05 278.55 54.88 272.92 63.95C271.255 66.6734 268.896 68.9051 266.084 70.4163C263.273 71.9275 260.11 72.6639 256.92 72.55H256.39C245.58 72.55 236.82 84.81 236.82 99.92C236.82 115.03 245.58 127.29 256.39 127.29C258.767 127.282 261.107 126.699 263.21 125.59C266.887 123.801 270.91 122.832 274.998 122.75C279.087 122.669 283.145 123.478 286.89 125.12C290.055 126.542 293.485 127.281 296.955 127.29C300.425 127.299 303.858 126.576 307.03 125.17C310.748 123.559 314.768 122.766 318.819 122.843C322.87 122.921 326.857 123.868 330.51 125.62C332.59 126.709 334.902 127.282 337.25 127.29C348.06 127.29 356.82 115.04 356.82 99.92C356.909 94.0768 355.522 88.3056 352.79 83.14Z" fill="#6C63FF"/>
<path opacity="0.1" d="M768.53 286.67C764.576 285.92 760.489 286.365 756.79 287.95C754.572 288.942 752.17 289.455 749.74 289.455C747.31 289.455 744.908 288.942 742.69 287.95C740.068 286.802 737.227 286.235 734.365 286.291C731.502 286.346 728.686 287.021 726.11 288.27C724.64 289.05 723.004 289.461 721.34 289.47C714.62 289.47 709.03 282.69 707.87 273.76C709.212 272.78 710.353 271.551 711.23 270.14C715.17 263.79 721.23 259.72 728.12 259.72C735.01 259.72 741.01 263.72 744.95 270.02C746.127 271.915 747.772 273.475 749.726 274.55C751.681 275.626 753.879 276.18 756.11 276.16H756.29C761.64 276.13 766.27 280.42 768.53 286.67Z" fill="#6C63FF"/>
<path opacity="0.1" d="M789 258.64L778.14 265.53L784.73 253.53C782.864 252.034 780.551 251.206 778.16 251.18H777.99C777.236 251.199 776.482 251.142 775.74 251.01L772.05 253.35L773.63 250.48C771.022 249.568 768.769 247.857 767.19 245.59L760.6 249.77L764.76 242.2C760.91 237.58 755.71 234.74 750 234.74C743.15 234.74 737 238.81 733.1 245.16C731.931 247.055 730.282 248.607 728.321 249.661C726.36 250.714 724.155 251.231 721.93 251.16H721.56C714 251.16 707.86 259.74 707.86 270.32C707.86 280.9 714 289.48 721.56 289.48C723.224 289.476 724.862 289.064 726.33 288.28C728.906 287.031 731.722 286.356 734.585 286.301C737.447 286.245 740.288 286.812 742.91 287.96C745.141 288.956 747.556 289.474 750 289.48C752.412 289.477 754.796 288.969 757 287.99C759.602 286.863 762.415 286.309 765.25 286.364C768.084 286.419 770.874 287.083 773.43 288.31C774.887 289.073 776.506 289.475 778.15 289.48C785.72 289.48 791.85 280.9 791.85 270.32C791.891 266.25 790.911 262.234 789 258.64Z" fill="#6C63FF"/>
<path opacity="0.1" d="M191.2 241.67C195.154 240.92 199.241 241.366 202.94 242.95C205.156 243.942 207.557 244.455 209.985 244.455C212.413 244.455 214.814 243.942 217.03 242.95C219.652 241.802 222.493 241.235 225.355 241.291C228.217 241.346 231.034 242.021 233.61 243.27C235.08 244.049 236.717 244.46 238.38 244.47C245.1 244.47 250.7 237.69 251.86 228.76C250.515 227.783 249.374 226.554 248.5 225.14C244.56 218.79 238.5 214.72 231.6 214.72C224.7 214.72 218.72 218.72 214.78 225.02C213.602 226.916 211.956 228.478 209.999 229.553C208.043 230.628 205.842 231.182 203.61 231.16H203.44C198.09 231.13 193.45 235.42 191.2 241.67Z" fill="#6C63FF"/>
<path opacity="0.1" d="M170.72 213.64L181.59 220.53L174.99 208.53C176.856 207.035 179.169 206.208 181.56 206.18H181.79C182.544 206.199 183.298 206.142 184.04 206.01L187.72 208.35L186.14 205.48C188.751 204.569 191.008 202.858 192.59 200.59L199.18 204.77L195.01 197.2C198.87 192.58 204.06 189.74 209.78 189.74C216.63 189.74 222.73 193.81 226.68 200.16C227.848 202.055 229.497 203.608 231.458 204.662C233.42 205.715 235.625 206.232 237.85 206.16H238.21C245.78 206.16 251.91 214.74 251.91 225.32C251.91 235.9 245.78 244.48 238.21 244.48C236.546 244.474 234.909 244.062 233.44 243.28C230.864 242.031 228.047 241.356 225.185 241.301C222.323 241.245 219.482 241.812 216.86 242.96C214.632 243.956 212.22 244.474 209.78 244.48C207.368 244.479 204.983 243.971 202.78 242.99C200.177 241.863 197.362 241.309 194.525 241.364C191.689 241.419 188.898 242.083 186.34 243.31C184.884 244.074 183.265 244.476 181.62 244.48C174.06 244.48 167.92 235.9 167.92 225.32C167.863 221.254 168.826 217.238 170.72 213.64Z" fill="#6C63FF"/>
<path opacity="0.1" d="M704.11 397.08H575.79V369.32C575.79 367.559 575.09 365.87 573.845 364.625C572.6 363.38 570.911 362.68 569.15 362.68H531.43V333.11C531.43 332.001 530.99 330.938 530.206 330.154C529.422 329.37 528.359 328.93 527.25 328.93H478.7C477.591 328.93 476.528 329.37 475.744 330.154C474.96 330.938 474.52 332.001 474.52 333.11V362.68H430.21C428.449 362.68 426.76 363.38 425.515 364.625C424.27 365.87 423.57 367.559 423.57 369.32V397.08H301.18C300.824 397.083 300.483 397.226 300.232 397.479C299.981 397.732 299.84 398.074 299.84 398.43V766.95C299.84 767.306 299.981 767.648 300.232 767.901C300.483 768.154 300.824 768.297 301.18 768.3H382.52C382.878 768.3 383.221 768.158 383.475 767.905C383.728 767.651 383.87 767.308 383.87 766.95V717.37C383.873 717.013 384.016 716.671 384.268 716.418C384.521 716.166 384.863 716.023 385.22 716.02H419.58C419.937 716.023 420.279 716.166 420.532 716.418C420.784 716.671 420.927 717.013 420.93 717.37V766.95C420.93 767.306 421.071 767.648 421.322 767.901C421.573 768.154 421.914 768.297 422.27 768.3H583.02C583.377 768.297 583.719 768.154 583.972 767.902C584.224 767.649 584.367 767.307 584.37 766.95V717.37C584.37 717.014 584.511 716.672 584.762 716.419C585.013 716.166 585.354 716.023 585.71 716.02H620.07C620.428 716.02 620.771 716.162 621.025 716.415C621.278 716.669 621.42 717.012 621.42 717.37V766.95C621.423 767.307 621.566 767.649 621.818 767.902C622.071 768.154 622.413 768.297 622.77 768.3H704.11C704.467 768.297 704.809 768.154 705.062 767.902C705.314 767.649 705.457 767.307 705.46 766.95V398.43C705.457 398.073 705.314 397.731 705.062 397.478C704.809 397.226 704.467 397.083 704.11 397.08ZM369.31 698.8C369.31 699.155 369.169 699.496 368.918 699.747C368.666 699.999 368.325 700.14 367.97 700.14H317.73C317.553 700.141 317.378 700.108 317.214 700.041C317.05 699.974 316.901 699.876 316.776 699.751C316.651 699.627 316.551 699.478 316.483 699.315C316.415 699.152 316.38 698.977 316.38 698.8V681.64C316.38 681.282 316.522 680.939 316.775 680.685C317.029 680.432 317.372 680.29 317.73 680.29H367.97C368.326 680.293 368.667 680.436 368.918 680.689C369.169 680.942 369.31 681.284 369.31 681.64V698.8ZM369.31 654.46C369.311 654.637 369.278 654.812 369.211 654.976C369.144 655.14 369.046 655.289 368.921 655.414C368.797 655.539 368.648 655.639 368.485 655.707C368.322 655.775 368.147 655.81 367.97 655.81H317.73C317.552 655.811 317.376 655.777 317.212 655.71C317.047 655.643 316.898 655.543 316.772 655.418C316.647 655.292 316.547 655.143 316.48 654.978C316.413 654.814 316.379 654.638 316.38 654.46V637.31C316.379 637.132 316.413 636.956 316.48 636.792C316.547 636.627 316.647 636.478 316.772 636.352C316.898 636.227 317.047 636.127 317.212 636.06C317.376 635.993 317.552 635.959 317.73 635.96H367.97C368.147 635.96 368.322 635.995 368.485 636.063C368.648 636.131 368.797 636.231 368.921 636.356C369.046 636.482 369.144 636.63 369.211 636.794C369.278 636.958 369.311 637.133 369.31 637.31V654.46ZM369.31 610.13C369.31 610.486 369.169 610.828 368.918 611.081C368.667 611.334 368.326 611.477 367.97 611.48H317.73C317.553 611.48 317.377 611.445 317.213 611.377C317.05 611.309 316.901 611.21 316.775 611.085C316.65 610.959 316.551 610.81 316.483 610.647C316.415 610.483 316.38 610.307 316.38 610.13V592.97C316.38 592.612 316.522 592.269 316.775 592.015C317.029 591.762 317.372 591.62 317.73 591.62H367.97C368.326 591.623 368.667 591.766 368.918 592.019C369.169 592.272 369.31 592.614 369.31 592.97V610.13ZM369.31 565.79C369.311 565.967 369.278 566.142 369.211 566.306C369.144 566.47 369.046 566.619 368.921 566.744C368.797 566.87 368.648 566.969 368.485 567.037C368.322 567.105 368.147 567.14 367.97 567.14H317.73C317.552 567.141 317.376 567.107 317.212 567.04C317.047 566.973 316.898 566.873 316.772 566.748C316.647 566.622 316.547 566.473 316.48 566.308C316.413 566.144 316.379 565.968 316.38 565.79V548.64C316.379 548.462 316.413 548.286 316.48 548.122C316.547 547.957 316.647 547.808 316.772 547.682C316.898 547.557 317.047 547.457 317.212 547.39C317.376 547.323 317.552 547.289 317.73 547.29H367.97C368.147 547.29 368.322 547.325 368.485 547.393C368.648 547.461 368.797 547.561 368.921 547.686C369.046 547.812 369.144 547.96 369.211 548.124C369.278 548.288 369.311 548.463 369.31 548.64V565.79ZM369.31 521.46C369.31 521.816 369.169 522.158 368.918 522.411C368.667 522.664 368.326 522.807 367.97 522.81H317.73C317.372 522.81 317.029 522.668 316.775 522.415C316.522 522.161 316.38 521.818 316.38 521.46V504.3C316.38 504.123 316.415 503.948 316.483 503.785C316.551 503.622 316.651 503.473 316.776 503.349C316.901 503.224 317.05 503.126 317.214 503.059C317.378 502.992 317.553 502.959 317.73 502.96H367.97C368.325 502.96 368.666 503.101 368.918 503.352C369.169 503.604 369.31 503.945 369.31 504.3V521.46ZM369.31 477.13C369.31 477.485 369.169 477.826 368.918 478.078C368.666 478.329 368.325 478.47 367.97 478.47H317.73C317.553 478.471 317.378 478.438 317.214 478.371C317.05 478.304 316.901 478.206 316.776 478.081C316.651 477.956 316.551 477.808 316.483 477.645C316.415 477.482 316.38 477.307 316.38 477.13V459.97C316.38 459.793 316.415 459.617 316.483 459.453C316.551 459.29 316.65 459.141 316.775 459.015C316.901 458.89 317.05 458.791 317.213 458.723C317.377 458.655 317.553 458.62 317.73 458.62H367.97C368.326 458.623 368.667 458.766 368.918 459.019C369.169 459.272 369.31 459.614 369.31 459.97V477.13ZM369.31 432.79C369.311 432.967 369.278 433.142 369.211 433.306C369.144 433.47 369.046 433.618 368.921 433.744C368.797 433.869 368.648 433.969 368.485 434.037C368.322 434.105 368.147 434.14 367.97 434.14H317.73C317.552 434.141 317.376 434.107 317.212 434.04C317.047 433.973 316.898 433.873 316.772 433.748C316.647 433.622 316.547 433.473 316.48 433.308C316.413 433.144 316.379 432.968 316.38 432.79V415.64C316.379 415.462 316.413 415.286 316.48 415.122C316.547 414.957 316.647 414.808 316.772 414.682C316.898 414.557 317.047 414.457 317.212 414.39C317.376 414.323 317.552 414.289 317.73 414.29H367.97C368.147 414.29 368.322 414.325 368.485 414.393C368.648 414.461 368.797 414.561 368.921 414.686C369.046 414.811 369.144 414.96 369.211 415.124C369.278 415.288 369.311 415.463 369.31 415.64V432.79ZM488.42 698.79C488.42 698.967 488.385 699.142 488.317 699.305C488.249 699.468 488.15 699.617 488.024 699.741C487.899 699.866 487.75 699.964 487.586 700.031C487.422 700.098 487.247 700.131 487.07 700.13H436.79C436.434 700.13 436.092 699.989 435.839 699.738C435.586 699.487 435.443 699.146 435.44 698.79V681.64C435.443 681.283 435.586 680.941 435.838 680.688C436.091 680.436 436.433 680.293 436.79 680.29H487.03C487.388 680.29 487.731 680.432 487.985 680.685C488.238 680.939 488.38 681.282 488.38 681.64L488.42 698.79ZM488.42 654.45C488.421 654.628 488.387 654.804 488.32 654.968C488.253 655.133 488.153 655.282 488.028 655.408C487.902 655.533 487.753 655.633 487.588 655.7C487.424 655.767 487.248 655.801 487.07 655.8H436.79C436.432 655.8 436.089 655.658 435.835 655.405C435.582 655.151 435.44 654.808 435.44 654.45V637.31C435.44 636.952 435.582 636.609 435.835 636.355C436.089 636.102 436.432 635.96 436.79 635.96H487.03C487.208 635.959 487.384 635.993 487.548 636.06C487.713 636.127 487.862 636.227 487.988 636.352C488.113 636.478 488.213 636.627 488.28 636.792C488.347 636.956 488.381 637.132 488.38 637.31L488.42 654.45ZM488.42 610.12C488.42 610.478 488.278 610.821 488.025 611.075C487.771 611.328 487.428 611.47 487.07 611.47H436.79C436.433 611.467 436.091 611.324 435.838 611.072C435.586 610.819 435.443 610.477 435.44 610.12V592.97C435.443 592.613 435.586 592.271 435.838 592.018C436.091 591.766 436.433 591.623 436.79 591.62H487.03C487.388 591.62 487.731 591.762 487.985 592.015C488.238 592.269 488.38 592.612 488.38 592.97L488.42 610.12ZM488.42 565.78C488.421 565.958 488.387 566.134 488.32 566.298C488.253 566.463 488.153 566.612 488.028 566.738C487.902 566.863 487.753 566.963 487.588 567.03C487.424 567.097 487.248 567.131 487.07 567.13H436.79C436.432 567.13 436.089 566.988 435.835 566.735C435.582 566.481 435.44 566.138 435.44 565.78V548.64C435.44 548.463 435.475 548.287 435.543 548.123C435.611 547.96 435.71 547.811 435.835 547.685C435.961 547.56 436.11 547.461 436.273 547.393C436.437 547.325 436.613 547.29 436.79 547.29H487.03C487.208 547.289 487.384 547.323 487.548 547.39C487.713 547.457 487.862 547.557 487.988 547.682C488.113 547.808 488.213 547.957 488.28 548.122C488.347 548.286 488.381 548.462 488.38 548.64L488.42 565.78ZM488.42 521.45C488.42 521.627 488.385 521.803 488.317 521.967C488.249 522.13 488.15 522.279 488.025 522.405C487.899 522.53 487.75 522.629 487.587 522.697C487.423 522.765 487.247 522.8 487.07 522.8H436.79C436.433 522.797 436.091 522.654 435.838 522.402C435.586 522.149 435.443 521.807 435.44 521.45V504.3C435.443 503.944 435.586 503.603 435.839 503.352C436.092 503.101 436.434 502.96 436.79 502.96H487.03C487.207 502.959 487.382 502.992 487.546 503.059C487.71 503.126 487.858 503.224 487.984 503.349C488.109 503.473 488.209 503.622 488.277 503.785C488.345 503.948 488.38 504.123 488.38 504.3L488.42 521.45ZM488.42 477.12C488.42 477.297 488.385 477.472 488.317 477.635C488.249 477.798 488.15 477.947 488.024 478.071C487.899 478.196 487.75 478.294 487.586 478.361C487.422 478.428 487.247 478.461 487.07 478.46H436.79C436.434 478.46 436.092 478.319 435.839 478.068C435.586 477.817 435.443 477.476 435.44 477.12V459.97C435.443 459.613 435.586 459.271 435.838 459.018C436.091 458.766 436.433 458.623 436.79 458.62H487.03C487.207 458.62 487.383 458.655 487.547 458.723C487.71 458.791 487.859 458.89 487.985 459.015C488.11 459.141 488.209 459.29 488.277 459.453C488.345 459.617 488.38 459.793 488.38 459.97L488.42 477.12ZM488.42 432.78C488.421 432.958 488.387 433.134 488.32 433.298C488.253 433.463 488.153 433.612 488.028 433.738C487.902 433.863 487.753 433.963 487.588 434.03C487.424 434.097 487.248 434.131 487.07 434.13H436.79C436.432 434.13 436.089 433.988 435.835 433.735C435.582 433.481 435.44 433.138 435.44 432.78V415.64C435.44 415.282 435.582 414.939 435.835 414.685C436.089 414.432 436.432 414.29 436.79 414.29H487.03C487.208 414.289 487.384 414.323 487.548 414.39C487.713 414.457 487.862 414.557 487.988 414.682C488.113 414.808 488.213 414.957 488.28 415.122C488.347 415.286 488.381 415.462 488.38 415.64L488.42 432.78ZM569.81 698.78C569.81 698.957 569.775 699.132 569.707 699.295C569.639 699.458 569.54 699.607 569.414 699.731C569.289 699.856 569.14 699.954 568.976 700.021C568.812 700.088 568.637 700.121 568.46 700.12H518.22C517.864 700.12 517.522 699.979 517.269 699.728C517.016 699.477 516.873 699.136 516.87 698.78V681.64C516.873 681.283 517.016 680.941 517.268 680.688C517.521 680.436 517.863 680.293 518.22 680.29H568.46C568.637 680.29 568.813 680.325 568.977 680.393C569.14 680.461 569.289 680.56 569.415 680.685C569.54 680.811 569.639 680.96 569.707 681.123C569.775 681.287 569.81 681.463 569.81 681.64V698.78ZM569.81 654.44C569.811 654.618 569.777 654.794 569.71 654.958C569.643 655.123 569.543 655.272 569.418 655.398C569.292 655.523 569.143 655.623 568.978 655.69C568.814 655.757 568.638 655.791 568.46 655.79H518.22C518.043 655.79 517.867 655.755 517.703 655.687C517.54 655.619 517.391 655.52 517.265 655.395C517.14 655.269 517.041 655.12 516.973 654.957C516.905 654.793 516.87 654.617 516.87 654.44V637.31C516.87 636.952 517.012 636.609 517.265 636.355C517.519 636.102 517.862 635.96 518.22 635.96H568.46C568.638 635.959 568.814 635.993 568.978 636.06C569.143 636.127 569.292 636.227 569.418 636.352C569.543 636.478 569.643 636.627 569.71 636.792C569.777 636.956 569.811 637.132 569.81 637.31V654.44ZM569.81 610.11C569.81 610.287 569.775 610.463 569.707 610.627C569.639 610.79 569.54 610.939 569.415 611.065C569.289 611.19 569.14 611.289 568.977 611.357C568.813 611.425 568.637 611.46 568.46 611.46H518.22C517.863 611.457 517.521 611.314 517.268 611.062C517.016 610.809 516.873 610.467 516.87 610.11V592.97C516.873 592.613 517.016 592.271 517.268 592.018C517.521 591.766 517.863 591.623 518.22 591.62H568.46C568.637 591.62 568.813 591.655 568.977 591.723C569.14 591.791 569.289 591.89 569.415 592.015C569.54 592.141 569.639 592.29 569.707 592.453C569.775 592.617 569.81 592.793 569.81 592.97V610.11ZM569.81 565.77C569.811 565.948 569.777 566.124 569.71 566.288C569.643 566.453 569.543 566.602 569.418 566.728C569.292 566.853 569.143 566.953 568.978 567.02C568.814 567.087 568.638 567.121 568.46 567.12H518.22C518.043 567.12 517.867 567.085 517.703 567.017C517.54 566.949 517.391 566.85 517.265 566.725C517.14 566.599 517.041 566.45 516.973 566.287C516.905 566.123 516.87 565.947 516.87 565.77V548.64C516.87 548.463 516.905 548.287 516.973 548.123C517.041 547.96 517.14 547.811 517.265 547.685C517.391 547.56 517.54 547.461 517.703 547.393C517.867 547.325 518.043 547.29 518.22 547.29H568.46C568.638 547.289 568.814 547.323 568.978 547.39C569.143 547.457 569.292 547.557 569.418 547.682C569.543 547.808 569.643 547.957 569.71 548.122C569.777 548.286 569.811 548.462 569.81 548.64V565.77ZM569.81 521.44C569.81 521.617 569.775 521.793 569.707 521.957C569.639 522.12 569.54 522.269 569.415 522.395C569.289 522.52 569.14 522.619 568.977 522.687C568.813 522.755 568.637 522.79 568.46 522.79H518.22C517.863 522.787 517.521 522.644 517.268 522.392C517.016 522.139 516.873 521.797 516.87 521.44V504.3C516.873 503.944 517.016 503.603 517.269 503.352C517.522 503.101 517.864 502.96 518.22 502.96H568.46C568.637 502.959 568.812 502.992 568.976 503.059C569.14 503.126 569.289 503.224 569.414 503.349C569.54 503.473 569.639 503.622 569.707 503.785C569.775 503.948 569.81 504.123 569.81 504.3V521.44ZM569.81 477.11C569.81 477.287 569.775 477.462 569.707 477.625C569.639 477.788 569.54 477.937 569.414 478.061C569.289 478.186 569.14 478.284 568.976 478.351C568.812 478.418 568.637 478.451 568.46 478.45H518.22C517.864 478.45 517.522 478.309 517.269 478.058C517.016 477.807 516.873 477.466 516.87 477.11V459.97C516.873 459.613 517.016 459.271 517.268 459.018C517.521 458.766 517.863 458.623 518.22 458.62H568.46C568.637 458.62 568.813 458.655 568.977 458.723C569.14 458.791 569.289 458.89 569.415 459.015C569.54 459.141 569.639 459.29 569.707 459.453C569.775 459.617 569.81 459.793 569.81 459.97V477.11ZM569.81 432.77C569.811 432.948 569.777 433.124 569.71 433.288C569.643 433.453 569.543 433.602 569.418 433.728C569.292 433.853 569.143 433.953 568.978 434.02C568.814 434.087 568.638 434.121 568.46 434.12H518.22C518.043 434.12 517.867 434.085 517.703 434.017C517.54 433.949 517.391 433.85 517.265 433.725C517.14 433.599 517.041 433.45 516.973 433.287C516.905 433.123 516.87 432.947 516.87 432.77V415.64C516.87 415.282 517.012 414.939 517.265 414.685C517.519 414.432 517.862 414.29 518.22 414.29H568.46C568.638 414.289 568.814 414.323 568.978 414.39C569.143 414.457 569.292 414.557 569.418 414.682C569.543 414.808 569.643 414.957 569.71 415.122C569.777 415.286 569.811 415.462 569.81 415.64V432.77ZM688.92 698.77C688.917 699.126 688.774 699.467 688.521 699.718C688.268 699.969 687.926 700.11 687.57 700.11H637.33C637.153 700.111 636.978 700.078 636.814 700.011C636.65 699.944 636.501 699.846 636.376 699.721C636.251 699.596 636.151 699.448 636.083 699.285C636.015 699.122 635.98 698.947 635.98 698.77V681.64C635.98 681.282 636.122 680.939 636.375 680.685C636.629 680.432 636.972 680.29 637.33 680.29H687.57C687.927 680.293 688.269 680.436 688.522 680.688C688.774 680.941 688.917 681.283 688.92 681.64V698.77ZM688.92 654.43C688.92 654.788 688.778 655.131 688.525 655.385C688.271 655.638 687.928 655.78 687.57 655.78H637.33C637.152 655.781 636.976 655.747 636.812 655.68C636.647 655.613 636.498 655.513 636.372 655.388C636.247 655.262 636.147 655.113 636.08 654.948C636.013 654.784 635.979 654.608 635.98 654.43V637.31C635.979 637.132 636.013 636.956 636.08 636.792C636.147 636.627 636.247 636.478 636.372 636.352C636.498 636.227 636.647 636.127 636.812 636.06C636.976 635.993 637.152 635.959 637.33 635.96H687.57C687.928 635.96 688.271 636.102 688.525 636.355C688.778 636.609 688.92 636.952 688.92 637.31V654.43ZM688.92 610.1C688.917 610.457 688.774 610.799 688.522 611.052C688.269 611.304 687.927 611.447 687.57 611.45H637.33C637.153 611.45 636.977 611.415 636.813 611.347C636.65 611.279 636.501 611.18 636.375 611.055C636.25 610.929 636.151 610.78 636.083 610.617C636.015 610.453 635.98 610.277 635.98 610.1V592.97C635.98 592.612 636.122 592.269 636.375 592.015C636.629 591.762 636.972 591.62 637.33 591.62H687.57C687.927 591.623 688.269 591.766 688.522 592.018C688.774 592.271 688.917 592.613 688.92 592.97V610.1ZM688.92 565.76C688.92 566.118 688.778 566.461 688.525 566.715C688.271 566.968 687.928 567.11 687.57 567.11H637.33C637.152 567.111 636.976 567.077 636.812 567.01C636.647 566.943 636.498 566.843 636.372 566.718C636.247 566.592 636.147 566.443 636.08 566.278C636.013 566.114 635.979 565.938 635.98 565.76V548.64C635.979 548.462 636.013 548.286 636.08 548.122C636.147 547.957 636.247 547.808 636.372 547.682C636.498 547.557 636.647 547.457 636.812 547.39C636.976 547.323 637.152 547.289 637.33 547.29H687.57C687.747 547.29 687.923 547.325 688.087 547.393C688.25 547.461 688.399 547.56 688.525 547.685C688.65 547.811 688.749 547.96 688.817 548.123C688.885 548.287 688.92 548.463 688.92 548.64V565.76ZM688.92 521.43C688.917 521.787 688.774 522.129 688.522 522.382C688.269 522.634 687.927 522.777 687.57 522.78H637.33C636.972 522.78 636.629 522.638 636.375 522.385C636.122 522.131 635.98 521.788 635.98 521.43V504.3C635.98 504.123 636.015 503.948 636.083 503.785C636.151 503.622 636.251 503.473 636.376 503.349C636.501 503.224 636.65 503.126 636.814 503.059C636.978 502.992 637.153 502.959 637.33 502.96H687.57C687.926 502.96 688.268 503.101 688.521 503.352C688.774 503.603 688.917 503.944 688.92 504.3V521.43ZM688.92 477.1C688.917 477.456 688.774 477.797 688.521 478.048C688.268 478.299 687.926 478.44 687.57 478.44H637.33C637.153 478.441 636.978 478.408 636.814 478.341C636.65 478.274 636.501 478.176 636.376 478.051C636.251 477.927 636.151 477.778 636.083 477.615C636.015 477.452 635.98 477.277 635.98 477.1V459.97C635.98 459.793 636.015 459.617 636.083 459.453C636.151 459.29 636.25 459.141 636.375 459.015C636.501 458.89 636.65 458.791 636.813 458.723C636.977 458.655 637.153 458.62 637.33 458.62H687.57C687.927 458.623 688.269 458.766 688.522 459.018C688.774 459.271 688.917 459.613 688.92 459.97V477.1ZM688.92 432.76C688.92 433.118 688.778 433.461 688.525 433.715C688.271 433.968 687.928 434.11 687.57 434.11H637.33C637.152 434.111 636.976 434.077 636.812 434.01C636.647 433.943 636.498 433.843 636.372 433.718C636.247 433.592 636.147 433.443 636.08 433.278C636.013 433.114 635.979 432.938 635.98 432.76V415.64C635.979 415.462 636.013 415.286 636.08 415.122C636.147 414.957 636.247 414.808 636.372 414.682C636.498 414.557 636.647 414.457 636.812 414.39C636.976 414.323 637.152 414.289 637.33 414.29H687.57C687.928 414.29 688.271 414.432 688.525 414.685C688.778 414.939 688.92 415.282 688.92 415.64V432.76Z" fill="#6C63FF"/>
</g>
<defs>
<clipPath id="clip0_2497_466">
<rect width="1013.58" height="769.76" fill="white"/>
</clipPath>
</defs>
</svg>
